<svg
  xmlns="http://www.w3.org/2000/svg"
  xmlns:xlink="http://www.w3.org/1999/xlink"
  version="1.1"
  id="Слой_1"
  x="0px"
  y="0px"
  viewBox="0 0 64 64"
  style="enable-background:new 0 0 64 64;"
  xml:space="preserve"
>
  <linearGradient
    id="SVGID_1__48187"
    gradientUnits="userSpaceOnUse"
    x1="32"
    y1="5.5"
    x2="32"
    y2="58.7335"
    spreadMethod="reflect"
  >
    <stop offset="0" style="stop-color:#1A6DFF" />
    <stop offset="1" style="stop-color:#C822FF" />
  </linearGradient>
  <path
    style="fill:url(#SVGID_1__48187);"
    d="M55,25h-1v-2c0-1.103-0.897-2-2-2v-4c0-2.757-2.243-5-5-5h-4c0-1.103-0.897-2-2-2h-2V9  c0-1.654-1.346-3-3-3h-8c-1.654,0-3,1.346-3,3v1h-2c-1.103,0-2,0.897-2,2h-4c-2.757,0-5,2.243-5,5v4c-1.103,0-2,0.897-2,2v2H9  c-1.654,0-3,1.346-3,3v8c0,1.654,1.346,3,3,3h1v2c0,1.103,0.897,2,2,2v4c0,2.757,2.243,5,5,5h4c0,1.103,0.897,2,2,2h2v1  c0,1.654,1.346,3,3,3h8c1.654,0,3-1.346,3-3v-1h2c1.103,0,2-0.897,2-2h4c2.757,0,5-2.243,5-5v-4c1.103,0,2-0.897,2-2v-2h1  c1.654,0,3-1.346,3-3v-8C58,26.346,56.654,25,55,25z M50,25v-2h2v2H50z M41,12v2h-2v-2H41z M27,9c0-0.552,0.449-1,1-1h8  c0.551,0,1,0.448,1,1v8c0,0.552-0.449,1-1,1h-8c-0.551,0-1-0.448-1-1V9z M23,12h2v2h-2V12z M12,23h2v2h-2V23z M8,36v-8  c0-0.552,0.449-1,1-1h8c0.551,0,1,0.448,1,1v8c0,0.552-0.449,1-1,1H9C8.449,37,8,36.552,8,36z M14,39v2h-2v-2H14z M23,52v-2h2v2H23z   M37,55c0,0.552-0.449,1-1,1h-8c-0.551,0-1-0.448-1-1v-8c0-0.552,0.449-1,1-1h8c0.551,0,1,0.448,1,1V55z M39,52v-2h2v2H39z M50,47  c0,1.654-1.346,3-3,3h-4c0-1.103-0.897-2-2-2h-2v-1c0-1.654-1.346-3-3-3h-8c-1.654,0-3,1.346-3,3v1h-2c-1.103,0-2,0.897-2,2h-4  c-1.654,0-3-1.346-3-3v-4c1.103,0,2-0.897,2-2v-2h1c1.654,0,3-1.346,3-3v-8c0-1.654-1.346-3-3-3h-1v-2c0-1.103-0.897-2-2-2v-4  c0-1.654,1.346-3,3-3h4c0,1.103,0.897,2,2,2h2v1c0,1.654,1.346,3,3,3h8c1.654,0,3-1.346,3-3v-1h2c1.103,0,2-0.897,2-2h4  c1.654,0,3,1.346,3,3v4c-1.103,0-2,0.897-2,2v2h-1c-1.654,0-3,1.346-3,3v8c0,1.654,1.346,3,3,3h1v2c0,1.103,0.897,2,2,2V47z M52,41  h-2v-2h2V41z M56,36c0,0.552-0.449,1-1,1h-8c-0.551,0-1-0.448-1-1v-8c0-0.552,0.449-1,1-1h8c0.551,0,1,0.448,1,1V36z"
  />
  <linearGradient
    id="SVGID_2__48187"
    gradientUnits="userSpaceOnUse"
    x1="13"
    y1="28.1667"
    x2="13"
    y2="36.1667"
    spreadMethod="reflect"
  >
    <stop offset="0" style="stop-color:#6DC7FF" />
    <stop offset="1" style="stop-color:#E6ABFF" />
  </linearGradient>
  <path
    style="fill:url(#SVGID_2__48187);"
    d="M16,34c0,0.552-0.448,1-1,1h-4c-0.552,0-1-0.448-1-1v-4c0-0.552,0.448-1,1-1h4  c0.552,0,1,0.448,1,1V34z"
  />
  <linearGradient
    id="SVGID_3__48187"
    gradientUnits="userSpaceOnUse"
    x1="51"
    y1="28.1667"
    x2="51"
    y2="36.1667"
    spreadMethod="reflect"
  >
    <stop offset="0" style="stop-color:#6DC7FF" />
    <stop offset="1" style="stop-color:#E6ABFF" />
  </linearGradient>
  <path
    style="fill:url(#SVGID_3__48187);"
    d="M54,34c0,0.552-0.448,1-1,1h-4c-0.552,0-1-0.448-1-1v-4c0-0.552,0.448-1,1-1h4  c0.552,0,1,0.448,1,1V34z"
  />
  <linearGradient
    id="SVGID_4__48187"
    gradientUnits="userSpaceOnUse"
    x1="32"
    y1="8.6667"
    x2="32"
    y2="16.8333"
    spreadMethod="reflect"
  >
    <stop offset="0" style="stop-color:#6DC7FF" />
    <stop offset="1" style="stop-color:#E6ABFF" />
  </linearGradient>
  <path
    style="fill:url(#SVGID_4__48187);"
    d="M35,15c0,0.552-0.448,1-1,1h-4c-0.552,0-1-0.448-1-1v-4c0-0.552,0.448-1,1-1h4  c0.552,0,1,0.448,1,1V15z"
  />
  <linearGradient
    id="SVGID_5__48187"
    gradientUnits="userSpaceOnUse"
    x1="32"
    y1="47.1667"
    x2="32"
    y2="54.6685"
    spreadMethod="reflect"
  >
    <stop offset="0" style="stop-color:#6DC7FF" />
    <stop offset="1" style="stop-color:#E6ABFF" />
  </linearGradient>
  <path
    style="fill:url(#SVGID_5__48187);"
    d="M35,53c0,0.552-0.448,1-1,1h-4c-0.552,0-1-0.448-1-1v-4c0-0.552,0.448-1,1-1h4  c0.552,0,1,0.448,1,1V53z"
  />
</svg>
